<?xml version="1.0" standalone="no"?>
<!DOCTYPE svg PUBLIC "-//W3C//DTD SVG 20010904//EN"
 "http://www.w3.org/TR/2001/REC-SVG-20010904/DTD/svg10.dtd">
<svg version="1.0" xmlns="http://www.w3.org/2000/svg"
 width="300.000000pt" height="303.000000pt" viewBox="0 0 300.000000 303.000000"
 preserveAspectRatio="xMidYMid meet">
<metadata>
Created by potrace 1.10, written by Peter Selinger 2001-2011
</metadata>
<g transform="translate(0.000000,303.000000) scale(0.100000,-0.100000)"
fill="#fcba02" stroke="none">
<path d="M1243 3007 c-3 -5 -12 -6 -20 -3 -8 3 -20 3 -26 -1 -6 -4 -23 -8 -38
-10 -15 -1 -51 -12 -79 -23 -28 -11 -56 -18 -61 -15 -5 4 -9 1 -9 -5 0 -6 -4
-8 -10 -5 -5 3 -10 1 -10 -5 0 -6 -4 -9 -9 -6 -5 3 -29 -5 -54 -18 -25 -14
-48 -22 -51 -19 -3 4 -6 1 -6 -5 0 -7 -7 -12 -15 -12 -21 0 -85 -32 -85 -42 0
-5 -4 -6 -10 -3 -5 3 -10 1 -10 -4 0 -6 -5 -11 -10 -11 -12 0 -73 -41 -78 -52
-2 -5 -10 -8 -17 -8 -7 0 -23 -11 -36 -25 -13 -13 -29 -25 -35 -25 -7 0 -19
-11 -28 -25 -9 -14 -20 -25 -25 -25 -8 0 -151 -140 -151 -149 0 -3 -19 -26
-42 -51 -38 -42 -128 -172 -128 -186 0 -4 -14 -29 -31 -57 -17 -28 -32 -58
-34 -67 -2 -10 -13 -36 -24 -58 -11 -22 -17 -42 -14 -46 4 -3 1 -6 -6 -6 -8 0
-11 -7 -7 -15 3 -8 1 -15 -5 -15 -6 0 -8 -4 -5 -8 3 -5 -4 -32 -15 -61 -10
-29 -21 -64 -22 -79 -2 -16 -7 -33 -11 -40 -4 -7 -4 -16 -1 -22 3 -5 3 -15 -1
-22 -10 -16 -12 -128 -3 -122 5 3 11 21 14 42 13 90 39 203 61 272 29 90 85
224 96 228 4 2 8 9 8 16 0 19 118 196 186 277 55 67 97 106 208 200 155 130
437 254 667 294 121 21 145 35 56 32 -38 -1 -71 -6 -74 -10z"/>
<path d="M1635 3010 c3 -5 22 -12 43 -16 175 -30 255 -52 392 -107 264 -106
512 -316 675 -572 105 -164 193 -411 220 -617 3 -27 10 -48 16 -48 10 0 6 110
-5 128 -4 7 -4 17 -1 22 3 6 3 15 -1 22 -4 7 -9 24 -11 40 -1 15 -12 50 -22
79 -11 29 -18 56 -15 61 3 4 1 8 -5 8 -6 0 -8 7 -5 15 4 8 1 15 -7 15 -7 0
-10 3 -6 6 3 4 -3 24 -14 46 -11 22 -22 48 -24 58 -2 9 -17 39 -34 67 -17 28
-31 53 -31 57 0 9 -84 137 -109 166 -89 104 -198 219 -208 219 -7 1 -20 12
-29 26 -9 14 -22 25 -30 25 -7 0 -17 6 -21 13 -9 16 -130 97 -144 97 -5 0 -9
5 -9 11 0 5 -4 7 -10 4 -5 -3 -10 -2 -10 3 0 10 -175 93 -201 95 -11 1 -19 5
-19 10 0 4 -4 5 -10 2 -5 -3 -10 -1 -10 5 0 6 -4 9 -9 5 -5 -3 -33 4 -61 15
-28 11 -64 22 -79 23 -15 2 -32 7 -39 11 -7 4 -16 4 -22 1 -5 -3 -15 -3 -22 1
-17 11 -129 14 -123 4z"/>
<path d="M1705 2395 l-27 -36 -31 20 c-64 39 -118 29 -147 -29 -22 -44 -26
-106 -9 -144 11 -23 6 -32 -64 -113 -131 -154 -130 -154 -436 -223 -286 -66
-455 -211 -522 -447 -29 -103 -31 -293 -5 -368 42 -116 65 -155 133 -219 18
-17 41 -46 51 -65 34 -64 63 -71 276 -71 188 0 189 0 212 -25 25 -28 6 -26
342 -26 203 0 198 -3 267 150 58 127 99 219 115 256 69 162 94 216 103 224 8
6 138 8 341 6 288 -2 330 -5 338 -18 6 -11 -2 -39 -25 -89 -55 -118 -67 -146
-67 -152 0 -3 -12 -31 -26 -63 -14 -32 -29 -67 -33 -78 -21 -52 -35 -82 -47
-107 -8 -14 -14 -33 -14 -40 0 -8 -10 -27 -23 -41 l-23 -27 -321 0 c-177 0
-328 -3 -337 -6 -45 -17 22 -22 311 -23 393 -2 375 -7 431 129 37 88 65 156
84 200 11 25 27 61 35 80 8 19 26 59 40 89 32 70 38 120 18 146 -15 19 -31 20
-358 25 l-342 5 -26 -30 c-32 -37 -69 -114 -69 -143 0 -28 -30 -30 -53 -4 -24
27 -21 46 14 84 28 30 62 85 114 181 11 20 37 66 57 102 21 36 40 76 44 90 12
48 -13 24 -50 -47 -44 -88 -54 -105 -84 -137 -13 -15 -31 -38 -40 -53 -9 -16
-20 -28 -24 -28 -4 0 -8 -9 -8 -19 0 -11 -5 -23 -10 -26 -6 -4 -8 -10 -6 -14
7 -10 -22 -51 -36 -51 -6 0 -8 13 -4 33 18 97 24 150 19 163 -7 20 -31 18 -37
-3 -14 -46 -16 -209 -6 -349 10 -131 10 -158 -2 -172 -18 -22 -48 -89 -48
-107 0 -10 -11 -15 -35 -15 -31 0 -36 3 -42 30 -3 17 -10 33 -14 36 -5 3 -9
11 -9 19 0 8 -5 26 -12 42 -10 27 -28 88 -77 268 -29 106 -41 135 -57 135 -32
0 -28 -23 27 -196 16 -50 29 -94 29 -97 0 -3 -16 -15 -35 -27 -20 -12 -41 -27
-48 -34 -28 -27 -172 -86 -210 -86 -22 0 -22 19 1 27 24 9 39 29 69 91 23 49
25 63 21 150 -3 78 -9 107 -28 146 -28 56 -111 146 -134 146 -9 0 -16 4 -16 9
0 5 -38 16 -85 26 -82 17 -86 17 -125 0 -45 -20 -43 -40 4 -32 36 6 117 -13
167 -38 18 -10 53 -39 78 -64 112 -116 112 -317 0 -433 -29 -29 -44 -51 -36
-53 6 -2 50 -6 97 -8 47 -1 94 -7 105 -12 19 -8 19 -8 3 9 -10 9 -18 21 -18
26 0 4 24 20 53 35 28 15 73 43 98 61 26 19 51 34 55 34 5 0 20 -34 33 -76 13
-42 29 -88 37 -103 l14 -26 -47 -7 c-53 -8 -277 -3 -346 7 -50 8 -84 -5 -96
-37 -7 -19 -15 -20 -191 -18 -165 1 -187 3 -216 21 -33 20 -44 37 -44 67 0 9
-13 24 -29 33 -40 23 -104 112 -132 184 -22 54 -24 75 -23 213 0 104 4 156 12
164 7 7 12 20 12 30 0 10 4 26 9 36 5 9 22 43 38 75 73 149 258 270 473 307
36 6 79 16 95 20 17 5 42 11 56 14 15 2 35 9 45 14 11 6 31 13 46 16 41 9 123
80 183 160 30 40 55 78 55 84 0 17 25 15 40 -3 15 -18 60 -20 59 -2 0 6 -21
26 -47 42 -42 27 -47 34 -50 72 -2 31 3 52 23 82 14 23 29 41 34 41 22 0 59
-21 96 -54 50 -45 70 -47 62 -7 -7 35 11 78 36 85 19 5 75 -41 94 -78 7 -12
23 -19 49 -21 41 -3 111 -16 182 -34 57 -15 227 -95 269 -127 55 -42 84 -97
84 -161 0 -30 -4 -60 -9 -66 -5 -7 -12 -31 -16 -54 -7 -50 -42 -122 -68 -141
-9 -7 -25 -20 -34 -30 -16 -15 -41 -17 -236 -16 -179 2 -218 0 -218 -12 0 -22
37 -26 226 -21 162 3 183 6 224 26 50 25 71 47 101 104 28 54 62 213 54 258
-8 49 -92 142 -159 176 -81 41 -246 100 -301 108 -92 13 -120 24 -160 65 -52
54 -91 55 -130 5z m135 -1306 c0 -28 -47 -132 -54 -120 -8 12 -24 159 -19 165
9 8 72 -31 73 -45z m-175 -358 c3 -5 0 -21 -7 -35 l-11 -26 -245 2 c-213 3
-246 5 -255 19 -6 9 -7 24 -4 33 6 14 34 16 261 16 145 0 257 -4 261 -9z"/>
<path d="M1796 2161 c-12 -18 6 -36 54 -59 39 -17 55 -20 70 -12 27 15 25 35
-6 59 -28 22 -107 30 -118 12z"/>
<path d="M2235 2050 c-3 -5 3 -24 15 -40 22 -31 54 -40 63 -17 11 28 -62 82
-78 57z"/>
<path d="M2294 1853 c-10 -34 -21 -48 -42 -58 -26 -12 -23 -29 5 -33 25 -4 73
53 73 86 0 27 -28 30 -36 5z"/>
<path d="M2952 1263 c-54 -293 -176 -544 -371 -761 -133 -149 -324 -283 -506
-356 -38 -16 -79 -32 -90 -37 -52 -21 -127 -41 -229 -61 -172 -33 -160 -45 24
-23 14 1 25 3 25 4 0 1 14 4 32 7 18 2 55 13 84 23 29 11 56 18 61 15 4 -3 8
-1 8 3 0 5 8 9 18 10 24 2 216 93 220 104 2 5 8 7 13 3 5 -3 9 0 9 5 0 6 5 11
10 11 12 0 73 41 78 53 2 4 10 7 17 7 7 0 23 11 36 25 13 13 29 25 35 25 7 0
19 11 28 25 9 14 22 25 29 26 6 0 53 46 102 101 50 55 95 105 101 112 19 20
114 164 114 172 0 4 14 29 31 57 17 28 32 58 34 67 2 10 13 36 24 58 11 22 17
42 14 46 -4 3 -1 6 6 6 8 0 11 7 7 15 -3 8 -1 15 5 15 6 0 8 4 5 8 -3 5 4 32
15 61 10 29 21 64 22 79 2 16 7 33 11 40 4 7 4 17 1 22 -3 6 -3 15 1 22 11 17
15 128 6 128 -5 0 -18 -53 -30 -117z"/>
<path d="M15 1317 c1 -29 5 -58 9 -65 4 -7 4 -16 1 -22 -3 -5 -3 -15 1 -22 4
-7 9 -24 11 -40 1 -15 12 -50 22 -79 11 -29 18 -56 15 -61 -3 -4 -1 -8 5 -8 6
0 8 -7 5 -15 -4 -8 -1 -15 7 -15 7 0 10 -3 6 -6 -3 -4 3 -24 14 -46 11 -22 22
-48 24 -58 2 -9 17 -39 34 -67 17 -28 31 -53 31 -57 0 -14 90 -144 128 -186
23 -25 42 -48 42 -51 0 -3 34 -39 76 -80 42 -41 87 -84 99 -97 12 -12 26 -22
31 -22 5 0 20 -12 33 -25 13 -14 29 -25 36 -25 7 0 15 -3 17 -7 5 -12 66 -53
78 -53 5 0 10 -5 10 -11 0 -5 5 -7 10 -4 6 3 10 2 10 -3 0 -9 101 -57 109 -52
2 1 7 -2 10 -7 8 -12 88 -46 106 -46 8 0 15 -4 15 -9 0 -5 4 -7 9 -3 5 3 33
-4 61 -15 28 -11 64 -22 79 -23 15 -2 32 -7 39 -11 7 -4 17 -4 22 -1 5 3 15 3
22 -1 14 -9 134 -17 126 -9 -6 6 -84 25 -183 45 -148 30 -371 125 -500 213
-199 136 -364 316 -465 507 -14 25 -29 52 -35 60 -37 50 -117 292 -140 425
-18 104 -31 127 -30 52z"/>
<path d="M2184 1049 c-30 -10 -64 -57 -64 -86 0 -46 17 -63 64 -63 37 0 48 5
70 31 14 17 26 43 26 58 0 45 -52 77 -96 60z m49 -50 c14 -22 -18 -69 -48 -69
-35 0 -42 36 -14 66 25 27 46 28 62 3z"/>
</g>
</svg>
