<?xml version="1.0" standalone="no"?>
<!DOCTYPE svg PUBLIC "-//W3C//DTD SVG 20010904//EN"
 "http://www.w3.org/TR/2001/REC-SVG-20010904/DTD/svg10.dtd">
<svg version="1.0" xmlns="http://www.w3.org/2000/svg"
 width="300.000000pt" height="303.000000pt" viewBox="0 0 300.000000 303.000000"
 preserveAspectRatio="xMidYMid meet">
<metadata>
Created by potrace 1.10, written by Peter Selinger 2001-2011
</metadata>
<g transform="translate(0.000000,303.000000) scale(0.050000,-0.050000)"
fill="#fcba02" stroke="none">
<path d="M2870 6039 c-7 -11 25 -19 78 -19 117 0 138 34 22 37 -49 1 -94 -7
-100 -18z"/>
<path d="M3093 6036 c5 -9 25 -16 45 -16 20 0 52 -18 73 -41 20 -22 47 -36 59
-32 13 5 33 -7 46 -27 14 -24 37 -33 64 -26 23 6 90 -4 150 -23 60 -19 122
-36 139 -39 16 -2 36 -10 44 -18 7 -8 28 -14 45 -14 18 0 118 -32 222 -72 105
-39 199 -74 210 -76 55 -14 128 -60 118 -75 -6 -9 12 -17 40 -17 56 0 94 -40
38 -41 -28 0 -24 -7 17 -29 28 -16 72 -25 96 -20 33 6 42 1 33 -21 -6 -18 1
-29 21 -29 32 0 152 -76 164 -104 3 -9 19 -16 35 -16 15 0 28 -10 28 -21 0
-12 10 -15 23 -7 14 9 18 5 9 -9 -8 -13 -1 -29 17 -35 17 -7 31 -25 31 -40 0
-15 9 -28 20 -28 38 0 320 -288 320 -327 0 -33 4 -34 34 -10 18 15 28 17 20 4
-7 -12 5 -46 28 -75 22 -28 34 -52 27 -52 -8 0 9 -23 39 -50 30 -28 49 -58 43
-69 -6 -10 5 -23 25 -30 53 -17 130 -180 117 -247 -6 -30 -7 -43 -1 -29 18 40
48 29 48 -16 0 -23 25 -79 55 -125 34 -52 54 -109 53 -149 -1 -36 5 -65 14
-65 9 0 11 -15 4 -33 -8 -22 -5 -29 9 -20 15 9 22 -8 21 -51 -1 -35 8 -67 21
-72 13 -4 23 -30 23 -57 0 -27 9 -66 20 -87 20 -37 36 -128 39 -216 0 -26 9
-41 19 -35 20 12 42 -34 42 -88 0 -20 19 -41 43 -48 42 -11 42 -8 28 163 -21
234 -25 272 -31 284 -3 6 -4 16 -3 24 1 8 -16 75 -39 149 -23 74 -46 155 -50
178 -4 24 -32 97 -62 161 -30 65 -56 129 -58 143 -3 14 -32 70 -66 125 -34 55
-62 105 -62 110 0 17 -184 299 -217 333 -18 18 -51 57 -73 86 -55 72 -331 350
-408 411 -35 28 -74 60 -88 71 -47 41 -277 189 -294 189 -9 0 -20 8 -23 18
-12 31 -464 243 -537 251 -16 1 -91 23 -166 47 -75 24 -142 42 -150 41 -8 -1
-18 0 -24 3 -40 17 -537 51 -527 36z"/>
<path d="M2657 6031 c-5 -5 -65 -12 -134 -15 -69 -2 -130 -11 -135 -19 -5 -9
-21 -11 -35 -5 -15 5 -88 -13 -163 -40 -76 -27 -145 -45 -154 -40 -9 6 -16 3
-16 -7 0 -9 -17 -18 -37 -19 -54 -4 -443 -189 -443 -210 0 -10 -8 -13 -18 -7
-10 6 -44 -10 -75 -35 -31 -26 -89 -66 -128 -89 -39 -24 -91 -59 -115 -79 -24
-20 -72 -58 -107 -86 -52 -42 -166 -154 -416 -412 -23 -23 -41 -53 -41 -65 0
-13 -8 -23 -18 -23 -19 0 -144 -190 -236 -356 -28 -52 -69 -123 -90 -159 -22
-36 -34 -65 -27 -65 6 0 -15 -53 -48 -118 -33 -65 -63 -139 -68 -166 -5 -26
-28 -109 -51 -183 -23 -74 -40 -141 -39 -149 1 -8 0 -18 -3 -24 -31 -63 -36
-417 -6 -429 16 -6 23 -2 15 10 -7 11 -3 32 8 45 10 13 23 51 27 84 l8 60 23
-50 c26 -58 25 -59 33 62 3 51 13 104 22 118 9 14 19 53 23 87 4 33 14 66 22
72 8 6 17 38 19 71 7 113 14 147 28 139 7 -5 19 18 25 51 22 114 27 128 50
136 13 4 23 22 24 41 0 18 13 50 30 72 16 21 29 55 29 74 0 25 10 32 33 23 21
-8 29 -5 20 9 -18 29 8 147 29 133 10 -5 18 3 18 18 0 16 13 40 30 54 16 13
25 33 19 42 -6 10 3 18 20 18 17 0 31 14 31 31 0 19 10 26 25 17 14 -8 19 -7
11 1 -21 24 35 121 98 171 31 24 56 57 56 74 0 17 18 42 39 54 51 29 91 65 91
83 0 24 84 89 115 89 18 0 25 12 18 30 -12 31 78 130 118 130 12 0 53 27 90
59 38 33 78 67 89 76 11 9 36 13 55 9 24 -5 31 2 23 24 -9 22 -1 28 29 23 29
-6 37 0 30 20 -7 17 1 29 19 29 17 0 34 7 37 15 4 8 38 32 75 53 37 21 62 28
54 15 -8 -12 16 -7 52 12 36 19 69 42 73 50 3 8 21 15 38 15 18 0 50 16 72 35
38 34 39 33 26 -5 -13 -39 -13 -39 17 -1 16 21 30 31 30 22 0 -9 12 -6 27 6
15 13 33 16 41 8 8 -8 24 1 34 20 12 21 44 35 78 35 32 0 62 8 68 17 6 10 57
24 112 31 56 8 97 20 92 29 -5 8 33 16 84 17 188 4 201 6 149 27 -42 17 -63
42 -30 37 44 -7 86 6 128 41 l47 40 -92 0 c-50 1 -96 -3 -101 -8z"/>
<path d="M5862 5935 c-1 -30 -13 -55 -27 -55 -17 -1 -18 -5 -3 -15 12 -8 27
-28 33 -45 10 -24 12 -23 13 5 2 43 42 47 42 4 0 -16 -14 -36 -32 -42 -25 -10
-26 -16 -5 -29 15 -10 17 -18 5 -18 -33 0 -30 -115 4 -128 23 -9 25 -3 8 28
-16 30 -15 40 4 40 20 1 20 5 -1 18 -19 12 -21 21 -5 31 13 8 17 24 9 36 -9
14 -1 17 22 8 26 -10 32 -6 24 17 -7 17 -1 30 13 30 13 0 0 20 -29 45 -29 25
-57 63 -62 85 -8 31 -11 27 -13 -15z"/>
<path d="M5948 5495 c5 -45 1 -51 -21 -33 -20 17 -27 17 -27 0 0 -12 -13 -22
-28 -22 -19 0 -25 -14 -17 -44 l12 -43 16 43 c20 56 34 55 56 -1 14 -34 19
-37 20 -10 0 19 11 35 23 35 16 0 17 8 3 25 -12 14 -26 43 -32 65 -7 24 -9 18
-5 -15z"/>
<path d="M3523 4939 c-47 -7 -92 -20 -100 -31 -34 -48 -93 -62 -153 -37 -123
51 -370 -65 -370 -174 0 -9 -9 -17 -19 -17 -11 0 -15 -13 -9 -28 6 -16 1 -63
-10 -104 -16 -57 -15 -80 3 -91 17 -10 13 -19 -12 -29 -24 -9 -29 -18 -14 -27
42 -26 -138 -291 -197 -291 -7 0 -10 -7 -7 -15 5 -15 -25 -22 -70 -16 -32 4
-32 -24 -1 -55 19 -19 12 -24 -30 -24 -30 0 -54 -9 -54 -20 0 -11 -7 -19 -15
-17 -8 2 -40 -7 -71 -20 -31 -13 -74 -23 -95 -23 -22 0 -39 -10 -39 -22 0 -17
-7 -17 -26 -1 -17 14 -34 15 -46 3 -10 -10 -37 -22 -58 -25 -22 -3 -50 -13
-63 -21 -13 -8 -47 -5 -75 5 -29 11 -52 13 -52 5 0 -9 -43 -27 -95 -41 -52
-14 -108 -37 -125 -52 -16 -15 -97 -55 -180 -90 -82 -35 -164 -76 -181 -92
-18 -16 -38 -23 -46 -16 -7 8 -13 -1 -13 -20 0 -18 -12 -33 -27 -33 -15 0 -43
-18 -63 -40 -19 -21 -45 -33 -56 -26 -11 7 -14 2 -6 -11 8 -13 4 -23 -8 -23
-12 0 -17 -8 -11 -18 6 -11 -2 -32 -19 -49 -16 -17 -30 -38 -30 -47 0 -9 -16
-26 -36 -39 -40 -25 -208 -350 -202 -391 6 -46 -26 -156 -47 -156 -11 0 -9
-13 4 -29 14 -16 18 -39 11 -52 -21 -32 -16 -483 5 -497 9 -7 19 -38 21 -71 2
-32 11 -64 19 -70 8 -6 46 -71 84 -145 37 -74 81 -139 96 -145 15 -6 21 -21
13 -34 -8 -13 -5 -18 7 -10 11 7 32 -1 45 -17 14 -17 18 -30 10 -30 -8 0 -6
-11 6 -25 11 -14 19 -34 17 -45 -2 -11 17 -23 42 -26 25 -4 45 -14 45 -22 0
-20 140 -165 140 -146 0 8 8 2 17 -12 26 -41 334 -64 549 -40 42 5 80 3 85 -5
5 -8 53 -14 107 -14 54 0 110 -8 125 -17 15 -9 40 -19 55 -21 15 -2 35 -15 43
-29 8 -13 29 -18 47 -12 18 7 32 3 32 -8 0 -11 8 -15 19 -9 10 6 24 2 31 -9 7
-11 21 -15 31 -9 11 6 19 0 19 -15 1 -18 5 -19 15 -4 19 28 145 47 145 22 0
-10 12 -9 27 4 16 13 107 21 229 20 111 -1 212 4 223 12 12 7 21 4 21 -6 0
-21 96 -7 109 15 5 8 61 7 125 -2 64 -10 193 -17 286 -17 94 0 310 -5 480 -11
171 -6 324 -11 340 -9 17 1 82 3 145 5 78 3 115 12 115 29 0 14 11 26 25 26
14 0 52 23 85 52 33 28 47 44 32 36 -19 -9 -23 -6 -14 9 8 13 33 23 55 23 29
0 38 9 30 30 -7 18 -1 30 15 30 15 0 32 18 38 40 6 22 3 36 -6 30 -9 -6 -12 8
-6 30 6 22 19 40 30 40 10 0 13 8 7 18 -15 25 9 84 29 72 8 -5 15 2 15 15 -3
80 7 116 28 103 16 -10 20 -4 11 19 -7 18 -3 33 8 33 11 0 15 9 8 20 -7 11 -4
20 5 20 10 0 18 11 18 25 1 55 87 218 109 204 16 -10 16 -3 2 24 -15 27 -13
48 8 76 15 21 28 59 28 85 0 28 12 46 31 46 17 0 26 9 20 19 -7 11 2 52 18 93
39 92 39 108 0 108 -17 0 -26 9 -19 20 7 11 5 20 -4 20 -9 0 -47 29 -85 65
l-70 65 -575 0 c-317 0 -576 4 -576 10 0 7 -18 13 -40 15 -22 1 -40 -6 -40
-17 0 -11 -9 -15 -20 -8 -11 7 -20 39 -20 71 0 33 9 59 20 59 11 0 20 10 20
22 0 12 20 39 45 61 25 22 34 34 20 27 -14 -7 -25 -3 -25 9 0 11 9 21 20 21
11 0 20 23 20 50 0 31 11 50 30 50 17 0 30 14 30 30 0 17 10 30 21 30 12 0 17
7 12 16 -21 34 25 77 47 44 15 -22 24 -24 35 -6 20 30 225 46 225 17 0 -12 9
-8 18 7 10 15 32 23 48 16 17 -6 45 5 62 24 18 20 68 53 111 74 80 38 119 86
129 159 3 21 26 49 50 62 25 12 58 46 73 75 15 29 19 48 10 43 -31 -19 -35 34
-8 108 14 39 26 103 26 141 1 39 10 83 19 98 31 49 -173 402 -232 402 -15 0
-26 9 -26 21 0 11 -72 53 -160 93 -88 39 -160 80 -160 90 0 10 -8 13 -18 7 -9
-6 -77 11 -150 37 -72 27 -132 44 -132 38 0 -6 -12 -1 -27 11 -15 13 -32 17
-39 10 -7 -6 -28 -5 -48 4 -20 8 -51 13 -69 11 -19 -2 -39 6 -47 17 -7 12 -21
16 -31 10 -11 -6 -19 -1 -19 11 0 12 -8 17 -19 11 -10 -6 -24 -2 -31 9 -7 11
-21 15 -32 9 -10 -6 -24 2 -30 20 -7 17 -20 26 -30 20 -10 -7 -24 3 -30 20 -7
17 -24 31 -39 31 -14 0 -29 11 -33 25 -4 18 -31 22 -93 14z m74 -156 c21 -21
54 -65 73 -98 33 -56 47 -62 178 -74 261 -25 573 -138 831 -301 151 -95 214
-257 163 -422 -10 -32 -29 -110 -43 -173 -14 -63 -33 -115 -42 -115 -9 0 -17
-14 -17 -32 0 -179 -410 -252 -977 -175 -82 11 -86 10 -80 -35 8 -54 62 -72
232 -76 58 -1 105 -11 105 -23 0 -93 -374 -658 -436 -659 -19 0 -22 31 -12
130 13 129 13 130 -36 130 -76 0 -107 -475 -55 -845 20 -145 19 -152 -40 -271
-34 -67 -61 -130 -61 -140 0 -87 -121 -70 -157 21 -38 96 -243 819 -243 859 0
48 -89 145 -117 128 -43 -27 4 -287 88 -487 16 -38 29 -80 29 -93 0 -58 -351
-272 -445 -272 -69 0 -69 8 6 146 235 434 -68 1000 -552 1030 -245 16 -344
-82 -104 -102 550 -47 790 -692 402 -1080 -93 -93 -85 -100 117 -97 173 4 266
-24 266 -78 0 -24 -33 -28 -194 -22 -189 7 -195 6 -244 -46 l-50 -54 -375 2
c-411 3 -467 19 -467 133 0 31 -28 66 -85 107 -246 176 -386 734 -275 1098
158 516 472 776 1090 902 278 57 327 71 460 132 157 71 288 191 405 372 77
118 120 141 166 86 32 -39 107 -30 115 15 4 23 -20 47 -73 74 -155 79 -185
174 -97 304 73 109 194 83 316 -68 44 -53 78 -27 78 58 0 138 77 191 157 111z
m263 -2140 c0 -21 -17 -59 -37 -85 -52 -66 -123 -210 -123 -248 0 -42 -54 -60
-90 -30 -50 41 -35 92 70 232 55 74 100 141 100 151 0 9 18 17 40 17 26 0 40
-13 40 -37z m1416 -127 c4 -19 -22 -96 -56 -170 -35 -75 -71 -154 -80 -176
-10 -22 -39 -89 -66 -150 -26 -60 -91 -218 -144 -350 -147 -365 -56 -330 -853
-330 -473 0 -677 7 -677 22 0 12 53 135 118 275 64 139 151 334 192 433 150
360 178 421 207 455 45 54 1349 44 1359 -9z m-2284 -756 c18 0 28 -22 28 -60
0 -33 -10 -60 -21 -60 -12 0 -16 -8 -10 -18 6 -10 -4 -16 -23 -13 -19 2 -37
14 -41 26 -4 11 -23 16 -44 11 -20 -5 -42 -1 -49 10 -21 34 10 84 51 84 25 0
34 9 25 23 -10 16 -3 20 20 10 20 -7 48 -13 64 -13z m324 -326 c17 -88 -13
-94 -518 -94 -499 0 -553 10 -501 95 33 53 1009 52 1019 -1z"/>
<path d="M3591 4341 c-22 -35 5 -121 38 -121 15 0 54 -15 86 -33 120 -69 229
18 138 110 -56 55 -236 86 -262 44z"/>
<path d="M4460 4089 c0 -57 63 -129 113 -129 68 0 81 53 26 111 -52 55 -139
67 -139 18z"/>
<path d="M4572 3691 c-16 -37 -47 -78 -70 -90 -50 -26 -55 -72 -11 -89 67 -25
169 81 169 175 0 79 -56 82 -88 4z"/>
<path d="M4300 2065 c-82 -73 -99 -178 -41 -240 99 -105 302 -13 307 140 4
152 -146 209 -266 100z m152 -73 c18 -48 -29 -112 -83 -112 -37 0 -49 11 -49
43 0 73 109 130 132 69z"/>
<path d="M5936 4800 c-24 -42 -26 -60 -9 -67 16 -7 14 -16 -7 -31 -26 -18 -25
-21 7 -22 29 0 35 10 26 43 -6 24 -2 61 10 82 33 62 9 58 -27 -5z"/>
<path d="M5983 3006 c-2 -68 -12 -129 -23 -136 -12 -7 -16 -20 -10 -29 5 -9
-4 -22 -20 -28 -17 -7 -30 -26 -30 -42 0 -17 -13 -31 -30 -31 -20 0 -31 -22
-32 -65 -4 -92 -5 -100 -32 -147 -14 -24 -19 -48 -12 -55 7 -7 4 -13 -7 -13
-10 0 -17 -40 -15 -88 3 -64 -7 -100 -35 -130 -21 -23 -28 -42 -15 -42 16 0
17 -7 2 -25 -12 -15 -25 -48 -29 -75 -4 -28 -17 -69 -30 -92 -13 -24 -18 -48
-11 -55 7 -7 2 -13 -12 -13 -13 0 -20 -8 -14 -17 6 -9 -2 -34 -18 -55 -16 -21
-29 -58 -29 -83 -1 -25 -10 -45 -21 -45 -11 0 -20 -13 -20 -30 0 -16 -8 -30
-19 -30 -10 0 -30 -31 -44 -70 -14 -38 -32 -70 -41 -70 -9 0 -16 -15 -16 -33
0 -45 -99 -126 -138 -112 -25 9 -27 5 -8 -15 30 -33 -50 -201 -93 -194 -16 2
-39 -16 -52 -41 -12 -25 -29 -39 -36 -32 -7 8 -13 -6 -13 -30 0 -29 -12 -43
-39 -43 -21 0 -44 -9 -51 -20 -7 -11 -2 -20 11 -20 18 0 18 -8 -1 -30 -14 -16
-40 -30 -57 -30 -29 -1 -29 -3 -3 -20 27 -18 14 -29 -26 -22 -27 5 -77 -56
-64 -78 11 -18 -17 -29 -38 -15 -4 3 -28 -13 -52 -35 -24 -22 -50 -40 -57 -40
-7 0 -11 -7 -8 -15 3 -8 -3 -15 -13 -15 -9 0 -70 -41 -134 -91 -74 -58 -131
-88 -154 -82 -26 7 -34 2 -26 -18 6 -16 -1 -29 -14 -29 -14 0 -60 -18 -103
-39 -42 -22 -86 -34 -97 -27 -11 7 -14 2 -6 -11 8 -13 3 -24 -12 -25 -54 -5
-95 -19 -226 -76 -85 -38 -165 -62 -305 -93 -80 -18 -141 -39 -136 -47 4 -8
-25 -16 -65 -19 -41 -3 -77 -13 -81 -24 -3 -10 -19 -19 -35 -19 -15 0 -47 -19
-71 -43 l-43 -43 168 15 c255 24 267 25 278 31 6 3 16 4 24 3 8 -1 74 16 148
39 74 23 149 44 167 48 161 31 695 317 854 458 14 12 54 45 89 72 34 28 133
122 219 210 86 88 175 179 198 202 22 23 41 53 41 65 0 13 8 23 18 23 10 0 67
79 127 175 135 217 241 405 228 405 -5 0 16 54 48 119 32 66 62 140 66 166 5
26 28 108 51 182 23 74 40 141 39 149 -1 8 0 19 3 24 3 6 7 33 10 60 2 28 16
163 29 300 14 138 21 277 16 310 -5 33 -10 4 -12 -64z"/>
<path d="M35 2815 c-11 -29 10 -381 25 -415 3 -5 4 -16 3 -24 -1 -8 16 -75 39
-149 23 -74 46 -157 51 -183 5 -27 35 -101 68 -166 33 -65 55 -118 50 -118
-26 0 281 -516 346 -583 18 -18 51 -56 73 -85 59 -76 334 -354 408 -412 35
-27 74 -59 88 -71 49 -43 265 -184 282 -185 10 0 23 -10 31 -22 17 -27 434
-224 483 -228 21 -1 38 -11 38 -22 0 -10 5 -14 11 -8 6 6 79 -11 163 -37 84
-27 185 -52 224 -56 387 -37 383 -37 372 -9 -7 15 -35 45 -64 66 -29 22 -46
28 -38 15 9 -14 2 -23 -17 -23 -17 0 -29 11 -26 25 3 14 -11 22 -32 19 -24 -5
-32 1 -22 17 10 17 -8 22 -67 16 -47 -5 -76 0 -69 11 6 10 -2 13 -19 7 -17 -7
-53 -1 -79 13 -27 14 -78 31 -115 39 -36 7 -80 29 -99 49 -18 20 -25 24 -16
10 26 -38 -27 -33 -55 5 -13 17 -49 34 -81 37 -33 3 -63 17 -67 29 -4 13 -31
23 -61 23 -88 0 -394 166 -372 201 5 8 -25 28 -66 45 -41 16 -100 53 -131 82
-31 29 -65 52 -76 52 -11 0 -14 11 -6 23 10 16 4 20 -20 11 -19 -8 -29 -6 -23
4 13 22 -38 66 -56 48 -7 -7 -13 -2 -13 12 0 13 -8 19 -19 13 -10 -6 -24 -3
-31 9 -7 11 -1 21 14 21 14 1 8 11 -14 21 -22 11 -65 56 -96 99 -32 44 -67 74
-79 66 -12 -8 -15 -4 -7 10 9 14 1 23 -18 23 -18 0 -27 9 -20 20 7 11 -1 26
-18 32 -17 6 -36 29 -43 50 -6 21 -20 34 -29 28 -10 -6 -14 7 -10 30 4 23 2
37 -6 32 -8 -5 -31 3 -50 18 -24 17 -29 31 -14 40 28 17 -12 70 -52 70 -33 0
-35 10 -7 61 14 27 14 39 0 39 -12 0 -21 -9 -21 -20 0 -39 -34 -20 -57 32 -14
29 -18 71 -11 93 7 22 5 35 -5 30 -9 -6 -29 2 -43 17 -14 15 -20 28 -12 28 7
0 1 14 -14 32 -14 18 -24 60 -22 95 3 44 -1 55 -14 35 -24 -37 -105 138 -123
268 -2 11 -11 35 -20 52 -10 18 -23 63 -29 100 -6 38 -26 113 -44 168 -18 55
-31 125 -29 155 2 30 -6 55 -19 55 -12 0 -17 -13 -11 -30 7 -16 4 -30 -5 -30
-10 0 -24 40 -31 90 -14 91 -39 130 -56 85z"/>
</g>
</svg>
