<?xml version="1.0" standalone="no"?> <!DOCTYPE svg PUBLIC "-//W3C//DTD SVG 20010904//EN" "http://www.w3.org/TR/2001/REC-SVG-20010904/DTD/svg10.dtd"> <svg version="1.0" xmlns="http://www.w3.org/2000/svg" width="600.000000pt" height="600.000000pt" viewBox="0 0 600.000000 600.000000" preserveAspectRatio="xMidYMid meet"> <g transform="translate(0.000000,600.000000) scale(0.100000,-0.100000)" fill="#e9b21b" stroke="none"> <path d="M2830 5614 c-1435 -124 -2477 -1282 -2437 -2708 32 -1124 731 -2072 1802 -2445 449 -157 1029 -170 1495 -36 1004 290 1733 1125 1896 2170 23 148 27 588 6 725 -174 1148 -964 2008 -2062 2244 -178 38 -538 64 -700 50z m515 -163 c1071 -163 1911 -985 2089 -2046 255 -1519 -912 -2926 -2429 -2928 -1385 -2 -2524 1191 -2472 2588 47 1239 986 2267 2187 2395 52 5 111 12 130 14 79 9 372 -4 495 -23z"/> <path d="M3425 4651 c-46 -11 -71 -27 -104 -67 l-30 -37 -50 21 c-206 89 -405 -101 -336 -321 l17 -54 -75 -99 c-180 -239 -307 -314 -647 -384 -276 -57 -445 -122 -615 -236 -449 -301 -627 -913 -412 -1419 105 -249 295 -462 471 -532 l71 -27 297 -4 297 -3 16 -26 c9 -14 41 -36 70 -49 l53 -24 1053 2 1054 3 48 29 c71 42 92 76 190 314 49 119 111 269 137 332 208 499 206 493 176 565 -8 19 -32 46 -57 62 -49 32 9 30 -754 25 l-440 -4 4 49 c5 74 33 152 86 242 76 127 82 131 217 142 332 26 481 156 549 479 49 236 23 376 -95 507 -147 163 -645 362 -908 363 -17 0 -29 7 -32 18 -26 79 -165 153 -251 133z m109 -142 c47 -37 35 -49 -49 -49 -41 0 -78 0 -82 -1 -17 -1 -13 31 6 50 28 28 89 28 125 0z m-295 -73 c29 -20 56 -52 75 -89 28 -51 34 -57 63 -57 34 0 54 33 38 61 -13 20 18 29 105 29 450 1 982 -217 1066 -436 l17 -43 -32 -36 c-33 -37 -41 -75 -17 -75 8 0 18 5 21 10 47 75 12 -184 -40 -297 -26 -57 -49 -68 -79 -37 -20 19 -20 25 -1 94 20 74 19 129 -1 137 -23 8 -33 -7 -50 -73 -34 -132 -105 -181 -217 -151 -67 17 -97 10 -97 -23 0 -53 133 -83 228 -51 58 20 63 20 97 4 42 -20 43 -26 8 -51 -77 -53 -191 -72 -428 -73 -415 -2 -640 104 -715 335 -30 91 -100 70 -79 -23 46 -207 257 -355 570 -399 l117 -17 -71 -121 c-75 -125 -230 -353 -272 -398 -49 -53 -53 -37 -29 150 7 56 -14 82 -55 69 -62 -19 -92 -377 -55 -660 29 -229 30 -211 -10 -305 -76 -177 -85 -190 -126 -190 -56 0 -54 -3 -130 270 -17 63 -54 183 -80 265 -27 83 -62 201 -79 263 -33 125 -42 142 -77 142 -65 0 -59 -79 27 -397 34 -126 39 -155 29 -168 -20 -25 -228 -147 -300 -177 -108 -45 -114 -38 -62 65 218 426 -64 928 -523 931 -141 1 -165 -5 -165 -43 0 -40 12 -46 125 -59 224 -25 360 -113 450 -292 92 -181 65 -425 -64 -572 -78 -90 -95 -143 -47 -153 11 -2 82 -6 156 -8 136 -3 230 -26 230 -56 0 -13 6 -12 -172 -11 -167 1 -211 -9 -259 -61 l-36 -39 -219 0 c-234 0 -335 10 -393 37 -175 83 -365 344 -433 596 -33 122 -33 385 0 507 117 429 416 689 917 800 477 106 569 158 786 447 39 51 72 93 74 93 3 0 19 -9 37 -20 49 -30 106 -27 114 5 7 30 -7 50 -50 72 -120 60 -155 208 -68 286 48 44 113 41 181 -7z m511 -1742 c0 -25 -9 -48 -30 -74 -16 -20 -56 -99 -89 -175 -74 -169 -84 -182 -102 -129 -31 94 -23 117 84 258 55 71 101 135 104 142 11 29 33 14 33 -22z m1234 -120 c3 -8 -21 -77 -53 -152 -89 -207 -239 -567 -272 -652 -53 -137 -99 -219 -129 -235 -25 -13 -115 -15 -594 -15 l-565 0 34 78 c18 42 61 140 95 217 34 77 79 181 100 230 21 50 57 133 80 185 23 52 61 141 85 198 49 116 65 138 109 151 60 18 1103 13 1110 -5z m-1939 -737 l32 -117 -41 0 c-35 1 -44 5 -61 33 -13 21 -42 43 -82 62 -35 17 -63 32 -63 35 0 8 164 109 174 106 5 -1 24 -55 41 -119z m215 -236 c0 -5 -7 -25 -15 -45 l-15 -36 -384 0 c-358 0 -385 1 -407 18 -26 22 -21 48 13 62 30 11 808 13 808 1z"/> <path d="M3100 4382 c0 -12 8 -23 19 -27 38 -12 73 -49 96 -102 21 -46 28 -54 47 -51 51 7 18 121 -49 172 -39 29 -113 34 -113 8z"/> <path d="M3512 4130 c-54 -25 -54 -50 1 -63 20 -5 37 -15 37 -22 0 -59 97 -90 144 -46 21 20 29 22 55 13 54 -19 58 25 6 74 -64 60 -167 78 -243 44z"/> <path d="M4273 3935 c-58 -41 -9 -130 58 -106 33 11 49 5 76 -29 21 -27 33 0 22 47 -20 77 -105 125 -156 88z"/> <path d="M4193 2207 c-72 -27 -133 -110 -133 -182 0 -159 209 -167 285 -11 62 126 -27 238 -152 193z m77 -92 c31 -38 -34 -129 -89 -123 -21 2 -27 9 -29 34 -6 62 84 131 118 89z"/> </g> </svg>